<mxfile host="app.diagrams.net" modified="2023-08-29T18:48:11.562Z" agent="Mozilla/5.0 (X11; Linux x86_64) AppleWebKit/537.36 (KHTML, like Gecko) Chrome/116.0.0.0 Safari/537.36" etag="fSD0qYbZ5SAKe6_dwGb4" version="21.7.0" type="google">
  <diagram name="Page-1" id="8WUWuPpTaz0QLfFQFoAW">
    <mxGraphModel grid="1" page="1" gridSize="10" guides="1" tooltips="1" connect="1" arrows="1" fold="1" pageScale="1" pageWidth="850" pageHeight="1100" math="0" shadow="0">
      <root>
        <mxCell id="0" />
        <mxCell id="1" parent="0" />
        <mxCell id="ZAIO-HBudvDgPKc-0LM3-3" value="" style="rounded=0;whiteSpace=wrap;html=1;" vertex="1" parent="1">
          <mxGeometry x="455" y="160" width="120" height="60" as="geometry" />
        </mxCell>
        <mxCell id="ZAIO-HBudvDgPKc-0LM3-4" value="Cliente" style="text;html=1;strokeColor=none;fillColor=none;align=center;verticalAlign=middle;whiteSpace=wrap;rounded=0;" vertex="1" parent="1">
          <mxGeometry x="478" y="172.5" width="75" height="35" as="geometry" />
        </mxCell>
        <mxCell id="ZAIO-HBudvDgPKc-0LM3-5" value="" style="endArrow=none;html=1;rounded=0;entryX=0.05;entryY=0.688;entryDx=0;entryDy=0;entryPerimeter=0;" edge="1" parent="1" target="ZAIO-HBudvDgPKc-0LM3-6">
          <mxGeometry width="50" height="50" relative="1" as="geometry">
            <mxPoint x="575" y="160" as="sourcePoint" />
            <mxPoint x="625" y="110" as="targetPoint" />
          </mxGeometry>
        </mxCell>
        <mxCell id="ZAIO-HBudvDgPKc-0LM3-6" value="" style="ellipse;whiteSpace=wrap;html=1;" vertex="1" parent="1">
          <mxGeometry x="640" y="20" width="120" height="80" as="geometry" />
        </mxCell>
        <mxCell id="ZAIO-HBudvDgPKc-0LM3-8" value="" style="endArrow=none;html=1;rounded=0;exitX=1;exitY=1;exitDx=0;exitDy=0;" edge="1" parent="1" source="ZAIO-HBudvDgPKc-0LM3-3">
          <mxGeometry width="50" height="50" relative="1" as="geometry">
            <mxPoint x="590" y="240" as="sourcePoint" />
            <mxPoint x="670" y="280" as="targetPoint" />
            <Array as="points" />
          </mxGeometry>
        </mxCell>
        <mxCell id="ZAIO-HBudvDgPKc-0LM3-9" value="" style="ellipse;whiteSpace=wrap;html=1;" vertex="1" parent="1">
          <mxGeometry x="660" y="260" width="120" height="80" as="geometry" />
        </mxCell>
        <mxCell id="ZAIO-HBudvDgPKc-0LM3-10" value="" style="endArrow=none;html=1;rounded=0;exitX=1;exitY=0.5;exitDx=0;exitDy=0;" edge="1" parent="1" source="ZAIO-HBudvDgPKc-0LM3-3">
          <mxGeometry width="50" height="50" relative="1" as="geometry">
            <mxPoint x="490" y="440" as="sourcePoint" />
            <mxPoint x="700" y="170" as="targetPoint" />
            <Array as="points">
              <mxPoint x="640" y="180" />
            </Array>
          </mxGeometry>
        </mxCell>
        <mxCell id="ZAIO-HBudvDgPKc-0LM3-11" value="" style="ellipse;whiteSpace=wrap;html=1;" vertex="1" parent="1">
          <mxGeometry x="700" y="128" width="120" height="80" as="geometry" />
        </mxCell>
        <mxCell id="ZAIO-HBudvDgPKc-0LM3-12" value="Endereco" style="text;html=1;strokeColor=none;fillColor=none;align=center;verticalAlign=middle;whiteSpace=wrap;rounded=0;" vertex="1" parent="1">
          <mxGeometry x="690" y="285" width="60" height="30" as="geometry" />
        </mxCell>
        <mxCell id="ZAIO-HBudvDgPKc-0LM3-13" value="Nome" style="text;html=1;strokeColor=none;fillColor=none;align=center;verticalAlign=middle;whiteSpace=wrap;rounded=0;" vertex="1" parent="1">
          <mxGeometry x="730" y="153" width="60" height="30" as="geometry" />
        </mxCell>
        <mxCell id="ZAIO-HBudvDgPKc-0LM3-14" value="&lt;u&gt;CPF&lt;/u&gt;" style="text;html=1;strokeColor=none;fillColor=none;align=center;verticalAlign=middle;whiteSpace=wrap;rounded=0;" vertex="1" parent="1">
          <mxGeometry x="670" y="45" width="60" height="30" as="geometry" />
        </mxCell>
        <mxCell id="ZAIO-HBudvDgPKc-0LM3-16" value="" style="endArrow=none;html=1;rounded=0;exitX=0.75;exitY=0;exitDx=0;exitDy=0;" edge="1" parent="1" source="ZAIO-HBudvDgPKc-0LM3-3">
          <mxGeometry width="50" height="50" relative="1" as="geometry">
            <mxPoint x="510" y="160" as="sourcePoint" />
            <mxPoint x="510" y="90" as="targetPoint" />
            <Array as="points" />
          </mxGeometry>
        </mxCell>
        <mxCell id="ZAIO-HBudvDgPKc-0LM3-17" value="" style="ellipse;whiteSpace=wrap;html=1;" vertex="1" parent="1">
          <mxGeometry x="440" y="10" width="120" height="80" as="geometry" />
        </mxCell>
        <mxCell id="ZAIO-HBudvDgPKc-0LM3-18" value="" style="ellipse;whiteSpace=wrap;html=1;direction=west;" vertex="1" parent="1">
          <mxGeometry x="455" y="20" width="90" height="60" as="geometry" />
        </mxCell>
        <mxCell id="ZAIO-HBudvDgPKc-0LM3-19" value="Telefones" style="text;html=1;strokeColor=none;fillColor=none;align=center;verticalAlign=middle;whiteSpace=wrap;rounded=0;" vertex="1" parent="1">
          <mxGeometry x="470" y="35" width="60" height="30" as="geometry" />
        </mxCell>
        <mxCell id="ZAIO-HBudvDgPKc-0LM3-22" value="" style="endArrow=none;html=1;rounded=0;exitX=0.5;exitY=1;exitDx=0;exitDy=0;" edge="1" parent="1" source="ZAIO-HBudvDgPKc-0LM3-3">
          <mxGeometry width="50" height="50" relative="1" as="geometry">
            <mxPoint x="520" y="430" as="sourcePoint" />
            <mxPoint x="515" y="320" as="targetPoint" />
          </mxGeometry>
        </mxCell>
        <mxCell id="ZAIO-HBudvDgPKc-0LM3-23" value="" style="rhombus;whiteSpace=wrap;html=1;" vertex="1" parent="1">
          <mxGeometry x="475.5" y="320" width="80" height="80" as="geometry" />
        </mxCell>
        <mxCell id="ZAIO-HBudvDgPKc-0LM3-25" value="" style="endArrow=none;html=1;rounded=0;entryX=0.5;entryY=1;entryDx=0;entryDy=0;" edge="1" parent="1" target="ZAIO-HBudvDgPKc-0LM3-23">
          <mxGeometry width="50" height="50" relative="1" as="geometry">
            <mxPoint x="516" y="480" as="sourcePoint" />
            <mxPoint x="570" y="380" as="targetPoint" />
          </mxGeometry>
        </mxCell>
        <mxCell id="ZAIO-HBudvDgPKc-0LM3-26" value="TEM" style="text;html=1;strokeColor=none;fillColor=none;align=center;verticalAlign=middle;whiteSpace=wrap;rounded=0;" vertex="1" parent="1">
          <mxGeometry x="485" y="345" width="60" height="30" as="geometry" />
        </mxCell>
        <mxCell id="ZAIO-HBudvDgPKc-0LM3-29" value="" style="rounded=0;whiteSpace=wrap;html=1;" vertex="1" parent="1">
          <mxGeometry x="455" y="480" width="120" height="60" as="geometry" />
        </mxCell>
        <mxCell id="ZAIO-HBudvDgPKc-0LM3-30" value="Carro" style="text;html=1;strokeColor=none;fillColor=none;align=center;verticalAlign=middle;whiteSpace=wrap;rounded=0;" vertex="1" parent="1">
          <mxGeometry x="485" y="495" width="60" height="30" as="geometry" />
        </mxCell>
        <mxCell id="ZAIO-HBudvDgPKc-0LM3-32" value="" style="endArrow=none;html=1;rounded=0;" edge="1" parent="1">
          <mxGeometry width="50" height="50" relative="1" as="geometry">
            <mxPoint x="620" y="580" as="sourcePoint" />
            <mxPoint x="575" y="540" as="targetPoint" />
          </mxGeometry>
        </mxCell>
        <mxCell id="ZAIO-HBudvDgPKc-0LM3-33" value="" style="ellipse;whiteSpace=wrap;html=1;" vertex="1" parent="1">
          <mxGeometry x="610" y="560" width="120" height="80" as="geometry" />
        </mxCell>
        <mxCell id="ZAIO-HBudvDgPKc-0LM3-34" value="" style="endArrow=none;html=1;rounded=0;exitX=0.375;exitY=0;exitDx=0;exitDy=0;exitPerimeter=0;entryX=0.571;entryY=1.02;entryDx=0;entryDy=0;entryPerimeter=0;" edge="1" parent="1" source="ZAIO-HBudvDgPKc-0LM3-35" target="ZAIO-HBudvDgPKc-0LM3-29">
          <mxGeometry width="50" height="50" relative="1" as="geometry">
            <mxPoint x="485" y="630" as="sourcePoint" />
            <mxPoint x="440" y="590" as="targetPoint" />
            <Array as="points">
              <mxPoint x="530" y="580" />
            </Array>
          </mxGeometry>
        </mxCell>
        <mxCell id="ZAIO-HBudvDgPKc-0LM3-35" value="" style="ellipse;whiteSpace=wrap;html=1;" vertex="1" parent="1">
          <mxGeometry x="490" y="620" width="120" height="80" as="geometry" />
        </mxCell>
        <mxCell id="ZAIO-HBudvDgPKc-0LM3-36" value="" style="endArrow=none;html=1;rounded=0;entryX=0.984;entryY=0.433;entryDx=0;entryDy=0;exitX=0;exitY=0.5;exitDx=0;exitDy=0;entryPerimeter=0;" edge="1" parent="1" source="ZAIO-HBudvDgPKc-0LM3-37" target="ZAIO-HBudvDgPKc-0LM3-29">
          <mxGeometry width="50" height="50" relative="1" as="geometry">
            <mxPoint x="667.5" y="480" as="sourcePoint" />
            <mxPoint x="622.5" y="440" as="targetPoint" />
          </mxGeometry>
        </mxCell>
        <mxCell id="ZAIO-HBudvDgPKc-0LM3-37" value="" style="ellipse;whiteSpace=wrap;html=1;" vertex="1" parent="1">
          <mxGeometry x="660" y="470" width="120" height="80" as="geometry" />
        </mxCell>
        <mxCell id="ZAIO-HBudvDgPKc-0LM3-40" value="" style="endArrow=none;html=1;rounded=0;entryX=0.18;entryY=1.043;entryDx=0;entryDy=0;entryPerimeter=0;" edge="1" parent="1" target="ZAIO-HBudvDgPKc-0LM3-29">
          <mxGeometry width="50" height="50" relative="1" as="geometry">
            <mxPoint x="440" y="620" as="sourcePoint" />
            <mxPoint x="395" y="580" as="targetPoint" />
          </mxGeometry>
        </mxCell>
        <mxCell id="ZAIO-HBudvDgPKc-0LM3-41" value="" style="ellipse;whiteSpace=wrap;html=1;" vertex="1" parent="1">
          <mxGeometry x="350" y="610" width="120" height="80" as="geometry" />
        </mxCell>
        <mxCell id="ZAIO-HBudvDgPKc-0LM3-42" value="" style="endArrow=none;html=1;rounded=0;exitX=0.002;exitY=0.629;exitDx=0;exitDy=0;exitPerimeter=0;" edge="1" parent="1" source="ZAIO-HBudvDgPKc-0LM3-29" target="ZAIO-HBudvDgPKc-0LM3-43">
          <mxGeometry width="50" height="50" relative="1" as="geometry">
            <mxPoint x="425" y="580" as="sourcePoint" />
            <mxPoint x="380" y="540" as="targetPoint" />
          </mxGeometry>
        </mxCell>
        <mxCell id="ZAIO-HBudvDgPKc-0LM3-43" value="" style="ellipse;whiteSpace=wrap;html=1;" vertex="1" parent="1">
          <mxGeometry x="260" y="520" width="120" height="80" as="geometry" />
        </mxCell>
        <mxCell id="ZAIO-HBudvDgPKc-0LM3-44" value="Fabricante" style="text;html=1;strokeColor=none;fillColor=none;align=center;verticalAlign=middle;whiteSpace=wrap;rounded=0;" vertex="1" parent="1">
          <mxGeometry x="690" y="495" width="60" height="30" as="geometry" />
        </mxCell>
        <mxCell id="ZAIO-HBudvDgPKc-0LM3-45" value="Ano" style="text;html=1;strokeColor=none;fillColor=none;align=center;verticalAlign=middle;whiteSpace=wrap;rounded=0;" vertex="1" parent="1">
          <mxGeometry x="520" y="645" width="60" height="30" as="geometry" />
        </mxCell>
        <mxCell id="ZAIO-HBudvDgPKc-0LM3-46" value="Modelo" style="text;html=1;strokeColor=none;fillColor=none;align=center;verticalAlign=middle;whiteSpace=wrap;rounded=0;" vertex="1" parent="1">
          <mxGeometry x="640" y="585" width="60" height="30" as="geometry" />
        </mxCell>
        <mxCell id="ZAIO-HBudvDgPKc-0LM3-49" value="Estado" style="text;html=1;strokeColor=none;fillColor=none;align=center;verticalAlign=middle;whiteSpace=wrap;rounded=0;" vertex="1" parent="1">
          <mxGeometry x="290" y="545" width="60" height="30" as="geometry" />
        </mxCell>
        <mxCell id="ZAIO-HBudvDgPKc-0LM3-50" value="&lt;u&gt;Placa&lt;/u&gt;" style="text;html=1;strokeColor=none;fillColor=none;align=center;verticalAlign=middle;whiteSpace=wrap;rounded=0;" vertex="1" parent="1">
          <mxGeometry x="380" y="635" width="60" height="30" as="geometry" />
        </mxCell>
        <mxCell id="ZAIO-HBudvDgPKc-0LM3-51" value="" style="rounded=0;whiteSpace=wrap;html=1;" vertex="1" parent="1">
          <mxGeometry x="170" y="260" width="120" height="60" as="geometry" />
        </mxCell>
        <mxCell id="ZAIO-HBudvDgPKc-0LM3-53" value="" style="endArrow=none;html=1;rounded=0;" edge="1" parent="1">
          <mxGeometry width="50" height="50" relative="1" as="geometry">
            <mxPoint x="390" y="415" as="sourcePoint" />
            <mxPoint x="455" y="480" as="targetPoint" />
          </mxGeometry>
        </mxCell>
        <mxCell id="ZAIO-HBudvDgPKc-0LM3-54" value="Envolve" style="rhombus;whiteSpace=wrap;html=1;" vertex="1" parent="1">
          <mxGeometry x="330" y="360" width="80" height="80" as="geometry" />
        </mxCell>
        <mxCell id="ZAIO-HBudvDgPKc-0LM3-55" value="Acidente" style="text;html=1;strokeColor=none;fillColor=none;align=center;verticalAlign=middle;whiteSpace=wrap;rounded=0;" vertex="1" parent="1">
          <mxGeometry x="200" y="275" width="60" height="30" as="geometry" />
        </mxCell>
        <mxCell id="ZAIO-HBudvDgPKc-0LM3-56" value="" style="endArrow=none;html=1;rounded=0;exitX=0;exitY=0;exitDx=0;exitDy=0;" edge="1" parent="1" source="ZAIO-HBudvDgPKc-0LM3-54">
          <mxGeometry width="50" height="50" relative="1" as="geometry">
            <mxPoint x="240" y="345" as="sourcePoint" />
            <mxPoint x="290" y="320" as="targetPoint" />
          </mxGeometry>
        </mxCell>
        <mxCell id="ZAIO-HBudvDgPKc-0LM3-57" value="(1,n)" style="text;html=1;strokeColor=none;fillColor=none;align=center;verticalAlign=middle;whiteSpace=wrap;rounded=0;" vertex="1" parent="1">
          <mxGeometry x="510" y="390" width="60" height="30" as="geometry" />
        </mxCell>
        <mxCell id="ZAIO-HBudvDgPKc-0LM3-58" value="1" style="text;html=1;strokeColor=none;fillColor=none;align=center;verticalAlign=middle;whiteSpace=wrap;rounded=0;" vertex="1" parent="1">
          <mxGeometry x="510" y="300" width="60" height="30" as="geometry" />
        </mxCell>
        <mxCell id="ZAIO-HBudvDgPKc-0LM3-71" value="" style="endArrow=none;html=1;rounded=0;entryX=0.25;entryY=0;entryDx=0;entryDy=0;" edge="1" parent="1" target="ZAIO-HBudvDgPKc-0LM3-51">
          <mxGeometry width="50" height="50" relative="1" as="geometry">
            <mxPoint x="200" y="185" as="sourcePoint" />
            <mxPoint x="123" y="186" as="targetPoint" />
          </mxGeometry>
        </mxCell>
        <mxCell id="ZAIO-HBudvDgPKc-0LM3-76" value="" style="endArrow=none;html=1;rounded=0;" edge="1" parent="1">
          <mxGeometry width="50" height="50" relative="1" as="geometry">
            <mxPoint x="90" y="370" as="sourcePoint" />
            <mxPoint x="170" y="320" as="targetPoint" />
          </mxGeometry>
        </mxCell>
        <mxCell id="ZAIO-HBudvDgPKc-0LM3-79" value="&lt;u&gt;N° BO&lt;/u&gt;" style="ellipse;whiteSpace=wrap;html=1;" vertex="1" parent="1">
          <mxGeometry x="39" y="361" width="100" height="80" as="geometry" />
        </mxCell>
        <mxCell id="ZAIO-HBudvDgPKc-0LM3-80" value="Data" style="ellipse;whiteSpace=wrap;html=1;" vertex="1" parent="1">
          <mxGeometry x="150" y="103" width="100" height="80" as="geometry" />
        </mxCell>
        <mxCell id="ZAIO-HBudvDgPKc-0LM3-81" value="n" style="text;html=1;align=center;verticalAlign=middle;resizable=0;points=[];autosize=1;strokeColor=none;fillColor=none;" vertex="1" parent="1">
          <mxGeometry x="410" y="410" width="30" height="30" as="geometry" />
        </mxCell>
        <mxCell id="ZAIO-HBudvDgPKc-0LM3-82" value="m" style="text;html=1;align=center;verticalAlign=middle;resizable=0;points=[];autosize=1;strokeColor=none;fillColor=none;" vertex="1" parent="1">
          <mxGeometry x="330" y="330" width="30" height="30" as="geometry" />
        </mxCell>
      </root>
    </mxGraphModel>
  </diagram>
</mxfile>
